<svg xmlns="http://www.w3.org/2000/svg" xmlns:xlink="http://www.w3.org/1999/xlink" width="500" zoomAndPan="magnify" viewBox="0 0 375 374.999991" height="500" preserveAspectRatio="xMidYMid meet" version="1.0"><defs><g/><clipPath id="3eb9f715de"><path d="M 0.285156 0.585938 L 309.199219 0.585938 L 309.199219 309.5 L 0.285156 309.5 Z M 0.285156 0.585938 " clip-rule="nonzero"/></clipPath><clipPath id="ff25be59f4"><path d="M 154.742188 0.585938 C 69.4375 0.585938 0.285156 69.738281 0.285156 155.042969 C 0.285156 240.347656 69.4375 309.5 154.742188 309.5 C 240.046875 309.5 309.199219 240.347656 309.199219 155.042969 C 309.199219 69.738281 240.046875 0.585938 154.742188 0.585938 Z M 154.742188 0.585938 " clip-rule="nonzero"/></clipPath><clipPath id="12f6681bfe"><path d="M 0.285156 0.585938 L 309.199219 0.585938 L 309.199219 309.5 L 0.285156 309.5 Z M 0.285156 0.585938 " clip-rule="nonzero"/></clipPath><clipPath id="a9cdaa6d3a"><path d="M 154.742188 0.585938 C 69.4375 0.585938 0.285156 69.738281 0.285156 155.042969 C 0.285156 240.347656 69.4375 309.5 154.742188 309.5 C 240.046875 309.5 309.199219 240.347656 309.199219 155.042969 C 309.199219 69.738281 240.046875 0.585938 154.742188 0.585938 Z M 154.742188 0.585938 " clip-rule="nonzero"/></clipPath><clipPath id="5cdaaaadcb"><rect x="0" width="310" y="0" height="310"/></clipPath><clipPath id="c6ba884c58"><path d="M 224.839844 168.832031 L 272.878906 168.832031 L 272.878906 216.875 L 224.839844 216.875 Z M 224.839844 168.832031 " clip-rule="nonzero"/></clipPath><clipPath id="ac772e0282"><path d="M 248.859375 168.832031 C 235.59375 168.832031 224.839844 179.585938 224.839844 192.851562 C 224.839844 206.117188 235.59375 216.875 248.859375 216.875 C 262.125 216.875 272.878906 206.117188 272.878906 192.851562 C 272.878906 179.585938 262.125 168.832031 248.859375 168.832031 Z M 248.859375 168.832031 " clip-rule="nonzero"/></clipPath><clipPath id="2adaa16b68"><path d="M 0.839844 0.832031 L 48.878906 0.832031 L 48.878906 48.875 L 0.839844 48.875 Z M 0.839844 0.832031 " clip-rule="nonzero"/></clipPath><clipPath id="b70c3fcb8a"><path d="M 24.859375 0.832031 C 11.59375 0.832031 0.839844 11.585938 0.839844 24.851562 C 0.839844 38.117188 11.59375 48.875 24.859375 48.875 C 38.125 48.875 48.878906 38.117188 48.878906 24.851562 C 48.878906 11.585938 38.125 0.832031 24.859375 0.832031 Z M 24.859375 0.832031 " clip-rule="nonzero"/></clipPath><clipPath id="7c6419ea94"><rect x="0" width="49" y="0" height="49"/></clipPath><clipPath id="886a5a897c"><rect x="0" width="310" y="0" height="310"/></clipPath><clipPath id="c5a7cad891"><path d="M 248.503906 213.644531 L 300.296875 213.644531 L 300.296875 265.4375 L 248.503906 265.4375 Z M 248.503906 213.644531 " clip-rule="nonzero"/></clipPath><clipPath id="3ad384f29b"><path d="M 274.398438 213.644531 C 260.097656 213.644531 248.503906 225.238281 248.503906 239.539062 C 248.503906 253.84375 260.097656 265.4375 274.398438 265.4375 C 288.703125 265.4375 300.296875 253.84375 300.296875 239.539062 C 300.296875 225.238281 288.703125 213.644531 274.398438 213.644531 Z M 274.398438 213.644531 " clip-rule="nonzero"/></clipPath><clipPath id="9e942569f0"><path d="M 0.503906 0.644531 L 52.296875 0.644531 L 52.296875 52.4375 L 0.503906 52.4375 Z M 0.503906 0.644531 " clip-rule="nonzero"/></clipPath><clipPath id="5d04d1ae3a"><path d="M 26.398438 0.644531 C 12.097656 0.644531 0.503906 12.238281 0.503906 26.539062 C 0.503906 40.84375 12.097656 52.4375 26.398438 52.4375 C 40.703125 52.4375 52.296875 40.84375 52.296875 26.539062 C 52.296875 12.238281 40.703125 0.644531 26.398438 0.644531 Z M 26.398438 0.644531 " clip-rule="nonzero"/></clipPath><clipPath id="c9032e7c29"><rect x="0" width="53" y="0" height="53"/></clipPath></defs><g transform="matrix(1, 0, 0, 1, 29, 28)"><g clip-path="url(#886a5a897c)"><g clip-path="url(#3eb9f715de)"><g clip-path="url(#ff25be59f4)"><g><g clip-path="url(#5cdaaaadcb)"><g clip-path="url(#12f6681bfe)"><g clip-path="url(#a9cdaa6d3a)"><path fill="#ff8181" d="M 0.285156 0.585938 L 309.199219 0.585938 L 309.199219 309.5 L 0.285156 309.5 Z M 0.285156 0.585938 " fill-opacity="1" fill-rule="nonzero"/></g></g></g></g></g></g><g fill="#f6f3e4" fill-opacity="1"><g transform="translate(50.52217, 185.335678)"><g><path d="M 44.59375 0 L 44.59375 -17.640625 L 21.625 -17.640625 C 18.320312 -17.640625 15.320312 -18.40625 12.625 -19.9375 C 9.925781 -21.46875 7.789062 -23.5 6.21875 -26.03125 C 4.644531 -28.570312 3.859375 -31.375 3.859375 -34.4375 C 3.859375 -36.050781 4.0625 -37.660156 4.46875 -39.265625 C 4.875 -40.878906 5.398438 -42.375 6.046875 -43.75 L 27.1875 -84.59375 L 49.0625 -84.59375 L 24.65625 -38.1875 C 24.414062 -37.78125 24.253906 -37.457031 24.171875 -37.21875 C 24.085938 -36.976562 24.046875 -36.65625 24.046875 -36.25 C 24.046875 -35.769531 24.226562 -35.367188 24.59375 -35.046875 C 24.957031 -34.722656 25.421875 -34.5625 25.984375 -34.5625 L 44.59375 -34.5625 L 44.59375 -61.140625 L 64.171875 -61.140625 L 64.171875 -34.5625 L 74.921875 -34.5625 L 74.921875 -17.640625 L 64.171875 -17.640625 L 64.171875 0 Z M 44.59375 0 "/></g></g></g><g fill="#f6f3e4" fill-opacity="1"><g transform="translate(119.632832, 185.335678)"><g><path d="M 50.875 0 C 45.71875 0 41.1875 -1.144531 37.28125 -3.4375 C 33.375 -5.738281 30.3125 -8.820312 28.09375 -12.6875 C 25.875 -16.550781 24.765625 -20.863281 24.765625 -25.625 L 24.765625 -67.671875 L 1.8125 -67.671875 L 1.8125 -84.59375 L 67.921875 -84.59375 L 67.921875 -67.671875 L 45.078125 -67.671875 L 45.078125 -23.8125 C 45.078125 -21.957031 45.71875 -20.34375 47 -18.96875 C 48.289062 -17.601562 49.90625 -16.921875 51.84375 -16.921875 L 58.484375 -16.921875 L 58.484375 0 Z M 50.875 0 "/></g></g></g><g fill="#f6f3e4" fill-opacity="1"><g transform="translate(179.439894, 185.335678)"><g><path d="M 7.375 0 L 7.375 -84.59375 L 43.75 -84.59375 C 49.382812 -84.59375 54.554688 -83.300781 59.265625 -80.71875 C 63.984375 -78.144531 67.75 -74.582031 70.5625 -70.03125 C 73.382812 -65.476562 74.796875 -60.222656 74.796875 -54.265625 C 74.796875 -48.296875 73.382812 -42.992188 70.5625 -38.359375 C 67.75 -33.734375 64.003906 -30.128906 59.328125 -27.546875 C 54.660156 -24.972656 49.46875 -23.6875 43.75 -23.6875 L 27.671875 -23.6875 L 27.671875 0 Z M 27.671875 -40.71875 L 41.453125 -40.71875 C 43.867188 -40.71875 46.039062 -41.238281 47.96875 -42.28125 C 49.90625 -43.332031 51.476562 -44.863281 52.6875 -46.875 C 53.894531 -48.894531 54.5 -51.316406 54.5 -54.140625 C 54.5 -56.960938 53.894531 -59.378906 52.6875 -61.390625 C 51.476562 -63.398438 49.882812 -64.945312 47.90625 -66.03125 C 45.9375 -67.125 43.785156 -67.671875 41.453125 -67.671875 L 27.671875 -67.671875 Z M 27.671875 -40.71875 "/></g></g></g><g clip-path="url(#c6ba884c58)"><g clip-path="url(#ac772e0282)"><g transform="matrix(1, 0, 0, 1, 224, 168)"><g clip-path="url(#7c6419ea94)"><g clip-path="url(#2adaa16b68)"><g clip-path="url(#b70c3fcb8a)"><path fill="#ff8181" d="M 0.839844 0.832031 L 48.878906 0.832031 L 48.878906 48.875 L 0.839844 48.875 Z M 0.839844 0.832031 " fill-opacity="1" fill-rule="nonzero"/></g></g></g></g></g></g></g></g><g clip-path="url(#c5a7cad891)"><g clip-path="url(#3ad384f29b)"><g transform="matrix(1, 0, 0, 1, 248, 213)"><g clip-path="url(#c9032e7c29)"><g clip-path="url(#9e942569f0)"><g clip-path="url(#5d04d1ae3a)"><path fill="#f6f3e4" d="M 0.503906 0.644531 L 52.296875 0.644531 L 52.296875 52.4375 L 0.503906 52.4375 Z M 0.503906 0.644531 " fill-opacity="1" fill-rule="nonzero"/></g></g></g></g></g></g></svg>